<?xml version="1.0" encoding="UTF-8" standalone="no"?>
<svg
   width="100"
   height="50"
   version="1.1"
   id="svg10"
   sodipodi:docname="or5.svg"
   inkscape:version="1.1.1 (3bf5ae0d25, 2021-09-20, custom)"
   xmlns:inkscape="http://www.inkscape.org/namespaces/inkscape"
   xmlns:sodipodi="http://sodipodi.sourceforge.net/DTD/sodipodi-0.dtd"
   xmlns="http://www.w3.org/2000/svg"
   xmlns:svg="http://www.w3.org/2000/svg">
  <defs
     id="defs14" />
  <sodipodi:namedview
     id="namedview12"
     pagecolor="#ffffff"
     bordercolor="#666666"
     borderopacity="1.0"
     inkscape:pageshadow="2"
     inkscape:pageopacity="0.0"
     inkscape:pagecheckerboard="0"
     showgrid="false"
     inkscape:zoom="16"
     inkscape:cx="45.28125"
     inkscape:cy="21.78125"
     inkscape:window-width="1678"
     inkscape:window-height="1008"
     inkscape:window-x="0"
     inkscape:window-y="20"
     inkscape:window-maximized="1"
     inkscape:current-layer="svg10" />
  <path
     d="m 24.09375,5 2,2.4375 c 0,0 5.65625,7.00005 5.65625,17.5625 0,10.56245 -5.65625,17.5625 -5.65625,17.5625 l -2,2.4375 H 41.25 c 2.40808,0 7.6897,0.02451 13.625,-2.40625 5.9353,-2.43076 12.53654,-7.34327 17.6875,-16.875 L 71.25,25 72.5625,24.28125 C 62.25939,5.21559 46.00657,5 41.25,5 Z M 27.0714,6.2294998 41.330971,6.1707211 C 43.882594,6.1602032 49.757034,6.0897797 56.053165,9.3209027 61.315126,12.021298 66.842198,17.20127 71.25,25 66.48321,33.42907 60.193284,39.053347 54.995814,41.181937 c -5.36066,2.19542 -11.271508,2.403096 -13.679533,2.419533 l -14.161252,0.09666 c 1.87359,-3.10843 6.189778,-10.73364 6.189778,-18.68429 0,-7.97335 -4.400687,-15.6845342 -6.273407,-18.7843442 z"
     id="path6"
     style="fill-rule:evenodd"
     sodipodi:nodetypes="ccsccsscccsccsscsscsc" />
  <rect
     style="fill:#000000;fill-opacity:1;stroke:#000000;stroke-width:0.689174;stroke-opacity:1"
     id="rect1222"
     width="0.64003086"
     height="0.80768859"
     x="71.56134"
     y="24.575285" />
</svg>
