<?xml version="1.0" encoding="UTF-8" standalone="no"?>
<!-- Created with Inkscape (http://www.inkscape.org/) -->

<svg
   xmlns:dc="http://purl.org/dc/elements/1.1/"
   xmlns:cc="http://creativecommons.org/ns#"
   xmlns:rdf="http://www.w3.org/1999/02/22-rdf-syntax-ns#"
   xmlns:svg="http://www.w3.org/2000/svg"
   xmlns="http://www.w3.org/2000/svg"
   version="1.1"
   width="235"
   height="62.5"
   id="svg3004"
   xml:space="preserve"><metadata
     id="metadata3010"><rdf:RDF><cc:Work
         rdf:about=""><dc:format>image/svg+xml</dc:format><dc:type
           rdf:resource="http://purl.org/dc/dcmitype/StillImage" /><dc:title></dc:title></cc:Work></rdf:RDF></metadata><defs
     id="defs3008" /><g
     transform="matrix(1.25,0,0,-1.25,0,62.5)"
     id="g3012"><g
       transform="scale(0.1,0.1)"
       id="g3014"><path
         d="m 415,220 105,0"
         id="path3016"
         style="fill:none;stroke:#000000;stroke-width:9.75;stroke-linecap:round;stroke-linejoin:miter;stroke-miterlimit:6;stroke-opacity:1;stroke-dasharray:none" /><path
         d="M 145,220 40,220"
         id="path3018"
         style="fill:none;stroke:#000000;stroke-width:9.75;stroke-linecap:round;stroke-linejoin:miter;stroke-miterlimit:6;stroke-opacity:1;stroke-dasharray:none" /><path
         d="m 415,220 -22.5,-52.5 -45,105 -45,-105 -45,105 -45,-105 -45,105 L 145,220"
         id="path3020"
         style="fill:none;stroke:#000000;stroke-width:9.75;stroke-linecap:round;stroke-linejoin:miter;stroke-miterlimit:6;stroke-opacity:1;stroke-dasharray:none" /><path
         d="m 1078.75,220 105,0"
         id="path3022"
         style="fill:none;stroke:#000000;stroke-width:9.75;stroke-linecap:round;stroke-linejoin:miter;stroke-miterlimit:6;stroke-opacity:1;stroke-dasharray:none" /><path
         d="m 808.75,220 -105,0"
         id="path3024"
         style="fill:none;stroke:#000000;stroke-width:9.75;stroke-linecap:round;stroke-linejoin:miter;stroke-miterlimit:6;stroke-opacity:1;stroke-dasharray:none" /><path
         d="m 1078.75,220 -22.5,-52.5 -45,105 -45,-105 -45,105 -45,-105 -45,105 -22.5,-52.5"
         id="path3026"
         style="fill:none;stroke:#000000;stroke-width:9.75;stroke-linecap:round;stroke-linejoin:miter;stroke-miterlimit:6;stroke-opacity:1;stroke-dasharray:none" /><g
         transform="scale(10,10)"
         id="g3028"><text
           transform="matrix(1,0,0,-1,21.025,4)"
           id="text3030"><tspan
             x="0"
             y="0"
             id="tspan3032"
             style="font-size:15px;font-style:oblique;font-variant:normal;writing-mode:lr-tb;fill:#000000;fill-opacity:1;fill-rule:nonzero;stroke:none;font-family:Helvetica;-inkscape-font-specification:Helvetica-Oblique">a</tspan></text>
</g><path
         d="m 820,160 240,120"
         id="path3034"
         style="fill:none;stroke:#000000;stroke-width:9.75;stroke-linecap:round;stroke-linejoin:miter;stroke-miterlimit:6;stroke-opacity:1;stroke-dasharray:none" /><g
         transform="scale(10,10)"
         id="g3036"><text
           transform="matrix(1,0,0,-1,87.1898,4)"
           id="text3038"><tspan
             x="0"
             y="0"
             id="tspan3040"
             style="font-size:15px;font-style:oblique;font-variant:normal;writing-mode:lr-tb;fill:#000000;fill-opacity:1;fill-rule:nonzero;stroke:none;font-family:Helvetica;-inkscape-font-specification:Helvetica-Oblique">b</tspan></text>
</g><path
         d="m 1735,220 105,0"
         id="path3042"
         style="fill:none;stroke:#000000;stroke-width:9.75;stroke-linecap:round;stroke-linejoin:miter;stroke-miterlimit:6;stroke-opacity:1;stroke-dasharray:none" /><path
         d="m 1465,220 -105,0"
         id="path3044"
         style="fill:none;stroke:#000000;stroke-width:9.75;stroke-linecap:round;stroke-linejoin:miter;stroke-miterlimit:6;stroke-opacity:1;stroke-dasharray:none" /><path
         d="m 1735,220 -22.5,-52.5 -45,105 -45,-105 -45,105 -45,-105 -45,105 L 1465,220"
         id="path3046"
         style="fill:none;stroke:#000000;stroke-width:9.75;stroke-linecap:round;stroke-linejoin:miter;stroke-miterlimit:6;stroke-opacity:1;stroke-dasharray:none" /><path
         d="m 1570,340 30,-60 30,60"
         id="path3048"
         style="fill:#000000;fill-opacity:1;fill-rule:evenodd;stroke:none" /><path
         d="m 1570,340 30,-60 30,60 -60,0 z"
         id="path3050"
         style="fill:none;stroke:#000000;stroke-width:9.75;stroke-linecap:round;stroke-linejoin:miter;stroke-miterlimit:6;stroke-opacity:1;stroke-dasharray:none" /><path
         d="M 1075,254.02 1111.96,310 1045,305.98"
         id="path3052"
         style="fill:#000000;fill-opacity:1;fill-rule:evenodd;stroke:none" /><path
         d="m 1075,254.02 36.96,55.98 -66.96,-4.02 30,-51.96 z"
         id="path3054"
         style="fill:none;stroke:#000000;stroke-width:9.75;stroke-linecap:round;stroke-linejoin:miter;stroke-miterlimit:6;stroke-opacity:1;stroke-dasharray:none" /><path
         d="m 1600,460 0,-120"
         id="path3056"
         style="fill:none;stroke:#000000;stroke-width:9.75;stroke-linecap:round;stroke-linejoin:miter;stroke-miterlimit:6;stroke-opacity:1;stroke-dasharray:none" /><g
         transform="scale(10,10)"
         id="g3058"><text
           transform="matrix(1,0,0,-1,152.86,4)"
           id="text3060"><tspan
             x="0"
             y="0"
             id="tspan3062"
             style="font-size:15px;font-style:oblique;font-variant:normal;writing-mode:lr-tb;fill:#000000;fill-opacity:1;fill-rule:nonzero;stroke:none;font-family:Helvetica;-inkscape-font-specification:Helvetica-Oblique">c</tspan></text>
</g></g></g></svg>