<?xml version="1.0" encoding="UTF-8" standalone="no"?>
<!-- Created with Inkscape (http://www.inkscape.org/) -->

<svg
   xmlns:dc="http://purl.org/dc/elements/1.1/"
   xmlns:cc="http://creativecommons.org/ns#"
   xmlns:rdf="http://www.w3.org/1999/02/22-rdf-syntax-ns#"
   xmlns:svg="http://www.w3.org/2000/svg"
   xmlns="http://www.w3.org/2000/svg"
   xmlns:sodipodi="http://sodipodi.sourceforge.net/DTD/sodipodi-0.dtd"
   xmlns:inkscape="http://www.inkscape.org/namespaces/inkscape"
   version="1.0"
   width="183"
   height="197"
   id="svg15005"
   inkscape:version="0.47 r22583"
   sodipodi:docname="Complex_number_illustration_modarg.svg">
  <metadata
     id="metadata34">
    <rdf:RDF>
      <cc:Work
         rdf:about="">
        <dc:format>image/svg+xml</dc:format>
        <dc:type
           rdf:resource="http://purl.org/dc/dcmitype/StillImage" />
      </cc:Work>
    </rdf:RDF>
  </metadata>
  <sodipodi:namedview
     pagecolor="#ffffff"
     bordercolor="#666666"
     borderopacity="1"
     objecttolerance="10"
     gridtolerance="10"
     guidetolerance="10"
     inkscape:pageopacity="0"
     inkscape:pageshadow="2"
     inkscape:window-width="864"
     inkscape:window-height="694"
     id="namedview32"
     showgrid="false"
     inkscape:zoom="2.3959391"
     inkscape:cx="74.805085"
     inkscape:cy="91.234316"
     inkscape:window-x="0"
     inkscape:window-y="0"
     inkscape:window-maximized="0"
     inkscape:current-layer="svg15005" />
  <defs
     id="defs15007">
    <inkscape:perspective
       sodipodi:type="inkscape:persp3d"
       inkscape:vp_x="0 : 98.5 : 1"
       inkscape:vp_y="0 : 1000 : 0"
       inkscape:vp_z="183 : 98.5 : 1"
       inkscape:persp3d-origin="91.5 : 65.666667 : 1"
       id="perspective36" />
    <marker
       refX="0"
       refY="0"
       orient="auto"
       id="Arrow2Mendw"
       style="overflow:visible">
      <path
         d="M 8.7185878,4.0337352 L -2.2072895,0.016013256 L 8.7185884,-4.0017078 C 6.97309,-1.6296469 6.9831476,1.6157441 8.7185878,4.0337352 z"
         transform="scale(-0.6,-0.6)"
         id="path13603"
         style="font-size:12px;fill:#fa8535;fill-rule:evenodd;stroke:#fa8535;stroke-width:0.625;stroke-linejoin:round" />
    </marker>
    <marker
       refX="0"
       refY="0"
       orient="auto"
       id="marker2465U"
       style="overflow:visible">
      <path
         d="M 8.7185878,4.0337352 L -2.2072895,0.016013256 L 8.7185884,-4.0017078 C 6.97309,-1.6296469 6.9831476,1.6157441 8.7185878,4.0337352 z"
         transform="scale(0.6,0.6)"
         id="path13600"
         style="font-size:12px;fill:#fa8535;fill-rule:evenodd;stroke:#fa8535;stroke-width:0.625;stroke-linejoin:round" />
    </marker>
  </defs>
  <path
     style="font-size:18px;font-style:oblique;font-variant:normal;font-weight:normal;font-stretch:normal;text-align:start;line-height:100%;text-anchor:start;fill:#000000;fill-opacity:1;fill-rule:evenodd;stroke:#000000;stroke-width:1.38239002;stroke-linecap:butt;stroke-linejoin:miter;stroke-miterlimit:4;stroke-opacity:1;stroke-dasharray:none;font-family:Bitstream Vera Sans"
     id="path2808"
     d="m 28.768884,24.17644 -5.73294,15.55793 c 0,0 0.24816,-0.157 0.44567,-0.28361 0.19751,-0.12662 0.10635,-0.08609 0.34438,-0.22284 0.23803,-0.13674 0.37477,-0.20764 0.60773,-0.32412 0.23297,-0.11648 0.15193,-0.0709 0.32413,-0.1418 0.17219,-0.0709 0.15193,-0.05571 0.36464,-0.1418 0.2127,-0.0861 0.24815,-0.11142 0.48618,-0.20259 0.23803,-0.09116 0.19751,-0.09116 0.46593,-0.16206 0.26841,-0.07089 0.34438,-0.06584 0.60773,-0.12154 0.26335,-0.05571 0.19245,-0.06078 0.44567,-0.10129 0.25322,-0.04052 0.28867,-0.03039 0.56722,-0.06078 0.27854,-0.03038 0.28867,-0.05064 0.54695,-0.06077 0.25829,-0.01013 0.21778,0.0152 0.48619,0.02026 0.26841,0.0051 0.34945,-0.0051 0.58747,0 0.23803,0.0051 0.18232,0.0051 0.36464,0.02026 0.18232,0.01519 0.157,0.01519 0.36464,0.04051 0.20764,0.02533 0.18739,0.01519 0.46593,0.06077 0.27854,0.04558 0.42541,0.06079 0.64825,0.12155 0.22283,0.06077 0.5115,0.12661 0.89134,0.26336 0.37983,0.13673 0.35957,0.15699 0.62799,0.2836 0.26841,0.12661 0.2127,0.11648 0.44567,0.22284 0.23296,0.10634 0.24815,0.11141 0.48618,0.24309 0.23803,0.13167 0.24816,0.1418 0.46593,0.2836 0.21777,0.14181 0.40515,0.2431 0.40515,0.2431 l -5.71267,-15.53767 z" />
  <text
     style="font-size:18px;font-style:oblique;font-variant:normal;font-weight:normal;font-stretch:normal;text-align:start;line-height:100%;text-anchor:start;fill:#000000;fill-opacity:1;stroke:none;font-family:Bitstream Vera Sans"
     xml:space="preserve"
     id="text1534"
     y="18.094122"
     x="17.49155"
     sodipodi:linespacing="100%"><tspan
       id="tspan1536"
       y="18.094122"
       x="17.49155">Im</tspan></text>
  <text
     style="font-size:18px;font-style:oblique;font-variant:normal;font-weight:normal;font-stretch:normal;text-align:start;line-height:100%;text-anchor:start;fill:#000000;fill-opacity:1;stroke:none;font-family:Bitstream Vera Sans"
     xml:space="preserve"
     id="text1538"
     y="175.653"
     x="154.52034"
     sodipodi:linespacing="100%"><tspan
       id="tspan1540"
       y="175.653"
       x="154.52034">Re</tspan></text>
  <path
     style="font-size:39.94110107px;font-style:oblique;font-variant:normal;font-weight:normal;font-stretch:normal;text-align:start;line-height:100%;text-anchor:start;fill:#000000;fill-opacity:1;fill-rule:evenodd;stroke:none;font-family:Bitstream Vera Sans"
     id="path2496"
     d="m 106.14844,59.14204 a 4.3952416,4.2057373 0 1 1 -8.790482,0 4.3952416,4.2057373 0 1 1 8.790482,0 z" />
  <path
     style="fill:none;stroke:#ff0000;stroke-width:2.5;stroke-linecap:round;stroke-linejoin:round;stroke-miterlimit:4;stroke-opacity:1;stroke-dasharray:none"
     id="path4084"
     d="m 45.642758,144.09837 a 28.315815,28.315815 0 0 1 12.73477,23.62329" />
  <text
     style="font-size:18px;font-style:oblique;font-variant:normal;font-weight:normal;font-stretch:normal;text-align:start;line-height:100%;writing-mode:lr-tb;text-anchor:start;fill:#000000;fill-opacity:1;stroke:none;font-family:Bitstream Vera Sans;-inkscape-font-specification:Bitstream Vera Sans Oblique"
     xml:space="preserve"
     id="text2502"
     y="186.98003"
     x="12.408055"
     sodipodi:linespacing="100%"><tspan
       id="tspan2504"
       y="186.98003"
       x="12.408055">0</tspan></text>
  <path
     style="font-size:18px;font-style:oblique;font-variant:normal;font-weight:normal;font-stretch:normal;text-align:start;line-height:100%;text-anchor:start;fill:none;fill-opacity:1;fill-rule:evenodd;stroke:#0064c8;stroke-width:2.5;stroke-linecap:round;stroke-linejoin:miter;stroke-miterlimit:4;stroke-opacity:1;stroke-dasharray:none;font-family:Bitstream Vera Sans"
     id="path2398"
     d="m 28.215424,168.80121 c 70.146,-104.89724 70.146,-104.89724 70.146,-104.89724" />
  <path
     style="font-size:18px;font-style:oblique;font-variant:normal;font-weight:normal;font-stretch:normal;text-align:start;line-height:100%;text-anchor:start;fill:none;stroke:#000000;stroke-width:1.75;stroke-linecap:butt;stroke-linejoin:miter;stroke-miterlimit:4;stroke-opacity:1;stroke-dasharray:none;font-family:Bitstream Vera Sans"
     id="path2868"
     d="M 28.405064,195.54719 28.905494,31.59138" />
  <path
     style="font-size:18px;font-style:oblique;font-variant:normal;font-weight:normal;font-stretch:normal;text-align:start;line-height:100%;text-anchor:start;fill:#0064c8;fill-opacity:1;fill-rule:evenodd;stroke:#0064c8;stroke-width:1.75000000000000000;stroke-linecap:butt;stroke-linejoin:miter;stroke-miterlimit:4;stroke-opacity:1;stroke-dasharray:none;font-family:Bitstream Vera Sans"
     id="path3369"
     d="m 100.58644,60.7595 -11.285089,8.298599 c 0,0 0.251034,9.02e-4 0.451601,4.96e-4 0.200561,-4.17e-4 0.116228,-0.01271 0.350642,-0.0022 0.234421,0.01053 0.365573,0.02192 0.587028,0.04433 0.221462,0.02241 0.142099,0.01815 0.298792,0.0453 0.15672,0.02717 0.135116,0.02876 0.328012,0.06335 0.192869,0.03459 0.230072,0.0327 0.443531,0.07502 0.21348,0.04234 0.184266,0.0243 0.41032,0.09428 0.22604,0.06997 0.278471,0.107289 0.493882,0.1856 0.215404,0.07831 0.166633,0.04325 0.367768,0.127623 0.201128,0.08442 0.222022,0.107251 0.436731,0.209979 0.214722,0.102709 0.231348,0.0931 0.422144,0.200936 0.190816,0.107845 0.149973,0.107472 0.341086,0.23041 0.191113,0.122952 0.254181,0.151944 0.4234,0.261363 0.16922,0.109426 0.129066,0.08464 0.253485,0.176349 0.124413,0.0917 0.106152,0.08043 0.244166,0.190461 0.138013,0.110034 0.128066,0.09397 0.307854,0.24966 0.179789,0.1557 0.278654,0.23164 0.411319,0.373154 0.132644,0.141496 0.310434,0.315831 0.521313,0.580173 0.21088,0.26431 0.186967,0.269439 0.322198,0.477137 0.135232,0.207705 0.09973,0.175864 0.21874,0.35367 0.119004,0.177792 0.127621,0.188076 0.238629,0.385797 0.111001,0.197714 0.113654,0.209274 0.205402,0.405047 0.09173,0.195774 0.180214,0.349749 0.180214,0.349749 L 100.58644,60.7595 z" />
  <path
     style="font-size:18px;font-style:oblique;font-variant:normal;font-weight:normal;font-stretch:normal;text-align:start;line-height:100%;text-anchor:start;fill:#000000;fill-opacity:1;fill-rule:evenodd;stroke:#000000;stroke-width:1.38239002;stroke-linecap:butt;stroke-linejoin:miter;stroke-miterlimit:4;stroke-opacity:1;stroke-dasharray:none;font-family:Bitstream Vera Sans"
     id="path4342"
     d="m 148.58241,168.49813 -15.55793,-5.73293 c 0,0 0.157,0.24815 0.28361,0.44567 0.12662,0.19751 0.0861,0.10635 0.22284,0.34438 0.13674,0.23803 0.20764,0.37477 0.32412,0.60773 0.11648,0.23296 0.0709,0.15193 0.1418,0.32412 0.0709,0.17219 0.0557,0.15194 0.14181,0.36464 0.0861,0.21271 0.11141,0.24816 0.20258,0.48619 0.0912,0.23803 0.0912,0.19751 0.16206,0.46593 0.0709,0.26841 0.0658,0.34438 0.12154,0.60773 0.0557,0.26335 0.0608,0.19245 0.10129,0.44567 0.0405,0.25322 0.0304,0.28867 0.0608,0.56721 0.0304,0.27855 0.0506,0.28868 0.0608,0.54696 0.0101,0.25829 -0.0152,0.21777 -0.0203,0.48619 -0.005,0.26841 0.005,0.34944 0,0.58747 -0.005,0.23803 -0.005,0.18232 -0.0203,0.36464 -0.0152,0.18232 -0.0152,0.157 -0.0405,0.36464 -0.0253,0.20764 -0.0152,0.18738 -0.0608,0.46593 -0.0456,0.27854 -0.0608,0.42541 -0.12155,0.64824 -0.0608,0.22284 -0.12661,0.51151 -0.26336,0.89134 -0.13673,0.37984 -0.15699,0.35958 -0.28359,0.62799 -0.12662,0.26842 -0.11649,0.21271 -0.22285,0.44567 -0.10634,0.23297 -0.11141,0.24816 -0.24309,0.48619 -0.13167,0.23803 -0.1418,0.24816 -0.2836,0.46593 -0.14181,0.21777 -0.24309,0.40515 -0.24309,0.40515 l 15.53766,-5.71268 z" />
  <path
     style="font-size:18px;font-style:oblique;font-variant:normal;font-weight:normal;font-stretch:normal;text-align:start;line-height:100%;text-anchor:start;fill:none;stroke:#000000;stroke-width:1.75;stroke-linecap:butt;stroke-linejoin:miter;stroke-miterlimit:4;stroke-opacity:1;stroke-dasharray:none;font-family:Bitstream Vera Sans"
     id="path2870"
     d="m 2.3138342,168.92046 136.5218758,0" />
  <text
     style="font-size:18px;font-style:oblique;font-variant:normal;font-weight:normal;font-stretch:normal;text-align:start;line-height:125%;writing-mode:lr-tb;text-anchor:start;fill:#ff0000;fill-opacity:1;stroke:none;font-family:Bitstream Vera Sans;-inkscape-font-specification:Bitstream Vera Sans Oblique"
     xml:space="preserve"
     id="text4090"
     y="152.21873"
     x="61.308308"
     sodipodi:linespacing="125%"><tspan
       style="font-size:18px;font-style:oblique;font-variant:normal;font-weight:normal;font-stretch:normal;text-align:start;line-height:125%;writing-mode:lr-tb;text-anchor:start;fill:#ff0000;fill-opacity:1;font-family:Bitstream Vera Sans;-inkscape-font-specification:Bitstream Vera Sans Oblique"
       id="tspan4092"
       y="152.21873"
       x="61.308308">φ</tspan></text>
  <path
     style="fill:#f29664;fill-opacity:1;fill-rule:evenodd;stroke:#fa8535;stroke-width:1.91357910999999992;stroke-linecap:butt;stroke-linejoin:miter;stroke-miterlimit:4;stroke-opacity:1;stroke-dasharray:none;marker-start:url(#marker2465U);marker-end:url(#Arrow2Mendw)"
     id="path4110"
     d="M 14.179714,153.93336 83.095054,50.98055" />
  <rect
     style="fill:#ffffff;fill-opacity:1;fill-rule:nonzero;stroke:none"
     id="rect4112"
     y="91.340843"
     x="39.173771"
     height="20.806469"
     width="21.249159" />
  <text
     style="font-size:18px;font-style:oblique;font-variant:normal;font-weight:normal;font-stretch:normal;text-align:start;line-height:125%;writing-mode:lr-tb;text-anchor:start;fill:#f29664;fill-opacity:1;stroke:none;font-family:Bitstream Vera Sans;-inkscape-font-specification:Bitstream Vera Sans Oblique"
     xml:space="preserve"
     id="text4102"
     y="107.2777"
     x="46.256824"
     sodipodi:linespacing="125%"><tspan
       style="font-size:18px;font-style:oblique;font-variant:normal;font-weight:normal;font-stretch:normal;text-align:start;line-height:125%;writing-mode:lr-tb;text-anchor:start;fill:#f29664;fill-opacity:1;stroke:none;font-family:Bitstream Vera Sans;-inkscape-font-specification:Bitstream Vera Sans Oblique"
       id="tspan4104"
       y="107.2777"
       x="46.256824">r</tspan></text>
  <path
     style="fill:#f29664;fill-opacity:1;fill-rule:evenodd;stroke:#fa8535;stroke-width:1.94124997000000010;stroke-linecap:butt;stroke-linejoin:miter;stroke-miterlimit:4;stroke-opacity:1;stroke-dasharray:none"
     id="path13373"
     d="M 92.871214,54.79459 77.048084,42.7261" />
  <path
     style="fill:#f29664;fill-opacity:1;fill-rule:evenodd;stroke:#fa8535;stroke-width:1.94124997000000010;stroke-linecap:butt;stroke-linejoin:miter;stroke-miterlimit:4;stroke-opacity:1;stroke-dasharray:none"
     id="path13375"
     d="M 23.131054,163.86891 4.7497242,149.84925" />
  <path
     d="M 101.23981,165.49634 101.74024,60.807482"
     id="path2837"
     style="font-size:18px;font-style:oblique;font-variant:normal;font-weight:normal;font-stretch:normal;text-align:start;line-height:100%;text-anchor:start;fill:none;stroke:#000000;stroke-width:1.75;stroke-linecap:butt;stroke-linejoin:miter;stroke-miterlimit:4;stroke-opacity:1;stroke-dasharray:1.74999999, 5.24999999;stroke-dashoffset:0;font-family:Bitstream Vera Sans" />
  <path
     d="m 30.991024,58.92046 64.976821,0"
     id="path3623"
     style="font-size:18px;font-style:oblique;font-variant:normal;font-weight:normal;font-stretch:normal;text-align:start;line-height:100%;text-anchor:start;fill:none;stroke:#000000;stroke-width:1.75000012;stroke-linecap:butt;stroke-linejoin:miter;stroke-miterlimit:4;stroke-opacity:1;stroke-dasharray:1.75000012, 5.25000037;stroke-dashoffset:0;font-family:Bitstream Vera Sans" />
  <text
     sodipodi:linespacing="100%"
     x="94.749153"
     y="184.83521"
     id="text3625"
     xml:space="preserve"
     style="font-size:18px;font-style:oblique;font-variant:normal;font-weight:normal;font-stretch:normal;text-align:start;line-height:100%;text-anchor:start;fill:#000000;fill-opacity:1;stroke:none;font-family:Bitstream Vera Sans"><tspan
       x="94.749153"
       y="184.83521"
       id="tspan3627">x</tspan></text>
  <text
     style="font-size:18px;font-style:oblique;font-variant:normal;font-weight:normal;font-stretch:normal;text-align:start;line-height:100%;text-anchor:start;fill:#000000;fill-opacity:1;stroke:none;font-family:Bitstream Vera Sans;-inkscape-font-specification:Bitstream Vera Sans Oblique;writing-mode:lr"
     xml:space="preserve"
     id="text3629"
     y="63.79707"
     x="13.361442"
     sodipodi:linespacing="100%"><tspan
       sodipodi:role="line"
       id="tspan3633">y</tspan></text>
</svg>
