<?xml version="1.0" encoding="UTF-8" standalone="no"?>
<svg
   width="100"
   height="50"
   version="1.1"
   id="svg10"
   sodipodi:docname="xor.svg"
   inkscape:version="1.1 (c4e8f9ed74, 2021-05-24)"
   xmlns:inkscape="http://www.inkscape.org/namespaces/inkscape"
   xmlns:sodipodi="http://sodipodi.sourceforge.net/DTD/sodipodi-0.dtd"
   xmlns="http://www.w3.org/2000/svg"
   xmlns:svg="http://www.w3.org/2000/svg">
  <defs
     id="defs14" />
  <sodipodi:namedview
     id="namedview12"
     pagecolor="#ffffff"
     bordercolor="#666666"
     borderopacity="1.0"
     inkscape:pageshadow="2"
     inkscape:pageopacity="0.0"
     inkscape:pagecheckerboard="0"
     showgrid="false"
     inkscape:zoom="90.509668"
     inkscape:cx="73.942377"
     inkscape:cy="25.400601"
     inkscape:window-width="1678"
     inkscape:window-height="1003"
     inkscape:window-x="0"
     inkscape:window-y="22"
     inkscape:window-maximized="1"
     inkscape:current-layer="svg10" />
  <g
     fill-rule="evenodd"
     id="g8">
    <path
       d="M24.25 42C22.65263 44.6444 22 45 22 45h-3.65625l2-2.4375S26 35.56245 26 25 20.34375 7.4375 20.34375 7.4375l-2-2.4375H22c.78125.9375 1.42188 1.65625 2.21875 3C26.09147 11.09981 29 17.02665 29 25c0 7.95065-2.8967 13.87942-4.75 17z"
       id="path4" />
    <path
       d="M24.09375 5l2 2.4375S31.75 14.43755 31.75 25s-5.65625 17.5625-5.65625 17.5625l-2 2.4375H41.25c2.40808 0 7.6897.02451 13.625-2.40625s12.53654-7.34327 17.6875-16.875L71.25 25l1.3125-.71875C62.25939 5.21559 46.00657 5 41.25 5H24.09375zm5.875 3H41.25c4.68417 0 18.28685-.1302 27.96875 17C64.45196 33.42907 58.69747 37.68391 53.5 39.8125 48.13934 42.00792 43.65808 42 41.25 42H30c1.87359-3.10843 4.75-9.04935 4.75-17 0-7.97335-2.90853-13.90019-4.78125-17z"
       id="path6" />
  </g>
  <rect
     style="fill:#000000;fill-opacity:1;stroke:#000000;stroke-width:0.831542;stroke-opacity:1"
     id="rect1222"
     width="1.2522697"
     height="0.60097659"
     x="70.893616"
     y="24.698254" />
</svg>
